<svg width="50" height="50" fill="none" xmlns="http://www.w3.org/2000/svg"><path d="M19.006 17H30.62c1.103 0 2.005.817 2.005 2.005V30.62c0 1.188-.902 2.005-2.005 2.005H19.006c-1.104 0-2.006-.817-2.006-2.005V19.005c0-1.188.902-2.005 2.006-2.005zm9.376 1.736a.705.705 0 00-.703.703v1.684c0 .387.316.704.703.704h1.766a.706.706 0 00.704-.704V19.44a.705.705 0 00-.704-.703h-1.766zm2.477 4.872h-1.375c.13.425.2.875.2 1.34 0 2.6-2.174 4.706-4.857 4.706-2.682 0-4.856-2.107-4.856-4.706 0-.466.07-.916.2-1.34h-1.435v6.6c0 .341.28.621.622.621h10.88c.342 0 .622-.28.622-.621v-6.6zm-6.032-1.87c-1.733 0-3.138 1.361-3.138 3.04 0 1.68 1.405 3.041 3.138 3.041 1.733 0 3.139-1.361 3.139-3.04 0-1.68-1.405-3.041-3.139-3.041z" fill="#fff"/><rect opacity=".1" x=".5" y=".5" width="49" height="49" rx="24.5" stroke="#fff"/></svg>