<svg width="50" height="50" fill="none" xmlns="http://www.w3.org/2000/svg"><rect opacity=".1" x=".5" y=".5" width="49" height="49" rx="24.5" stroke="#fff"/><path d="M29.022 16.004L26.773 16c-2.526 0-4.159 1.66-4.159 4.23v1.95h-2.26a.352.352 0 00-.354.35v2.826c0 .194.158.35.354.35h2.26v7.131c0 .194.159.35.354.35h2.95a.352.352 0 00.354-.35v-7.13h2.643a.352.352 0 00.354-.35V22.53a.35.35 0 00-.353-.35H26.27v-1.654c0-.795.191-1.198 1.236-1.198h1.515a.352.352 0 00.353-.351v-2.624a.352.352 0 00-.353-.35z" fill="#fff"/></svg>