<svg width="71" height="71" fill="none" xmlns="http://www.w3.org/2000/svg"><circle cx="35.5" cy="35.5" r="35" stroke="#fff"/><path d="M43.775 26.225c-.3-.3-.75-.3-1.05 0L38.75 30.2v-2.7c0-.45-.3-.75-.75-.75s-.75.3-.75.75V32c0 .075 0 .225.075.3.075.15.225.3.375.375.075.075.225.075.3.075h4.5c.45 0 .75-.3.75-.75s-.3-.75-.75-.75h-2.7l3.975-3.975c.3-.3.3-.75 0-1.05z" fill="#fff"/><path d="M41 43.175h-.225c-2.4-.3-4.8-1.125-6.825-2.4a15.77 15.77 0 01-4.725-4.725c-1.35-2.025-2.175-4.425-2.4-6.825 0-.6.15-1.2.525-1.65.375-.45.9-.75 1.5-.825h2.475c1.125 0 2.1.825 2.25 1.95.075.675.225 1.35.45 1.95.3.825.075 1.725-.525 2.4l-.525.525c.9 1.35 2.025 2.55 3.45 3.45l.525-.525c.6-.6 1.575-.825 2.4-.525.6.225 1.275.375 1.95.45 1.125.15 1.95 1.125 1.95 2.25v2.25c0 .6-.225 1.2-.675 1.575-.45.375-.975.675-1.575.675zM31.325 28.25h-2.25c-.225 0-.45.15-.6.3-.075.15-.15.3-.15.525a14.107 14.107 0 002.175 6.15c1.125 1.725 2.55 3.225 4.275 4.275a14.107 14.107 0 006.15 2.175c.3 0 .45-.075.6-.225a.68.68 0 00.225-.525v-2.25c0-.375-.3-.675-.675-.75-.75-.075-1.5-.3-2.25-.6-.3-.075-.6-.075-.825.15l-.975.975c-.225.225-.6.3-.9.15a12.307 12.307 0 01-4.8-4.8c-.075-.3 0-.675.225-.9l.975-.975c.15-.15.225-.525.15-.75-.3-.75-.45-1.5-.6-2.25 0-.375-.375-.675-.75-.675z" fill="#fff"/></svg>