<svg width="50" height="50" fill="none" xmlns="http://www.w3.org/2000/svg"><rect opacity=".1" x=".5" y=".5" width="49" height="49" rx="24.5" stroke="#fff"/><path d="M15.304 24.492l3.96 1.543 1.533 5.148c.098.33.484.451.74.233l2.208-1.88a.637.637 0 01.803-.023l3.981 3.018c.274.209.663.052.732-.294l2.916-14.65c.075-.377-.28-.693-.625-.553L15.3 23.58c-.401.162-.398.755.005.912zm5.246.722l7.74-4.977c.139-.09.282.107.163.222l-6.388 6.2c-.225.218-.37.51-.41.827l-.218 1.684a.198.198 0 01-.39.03l-.838-3.07a.83.83 0 01.34-.916z" fill="#fff"/></svg>