<svg version="1.0" xmlns="http://www.w3.org/2000/svg" width="93.333" height="93.333" viewBox="0 0 70 70"><path d="M21.5 1.4C14.6 3.1 9.6 5.6 6 9.3c-3 3.1-3.5 4.2-4.4 10-1.6 9.5 9.2 16.6 33.9 22.3 8.6 1.9 16.2 5.9 18 9.5 5.2 9.9-9.9 17.7-28.4 14.8-5.3-.8-15.5-4.8-14.6-5.7.3-.3 1.9-.7 3.6-.8 6.5-.5 10.9-5.6 8.7-10.2C18.6 40.5 0 42.7 0 51.9c0 10.5 16.6 18.3 37 17.6 18.5-.6 31-7.5 32.7-17.9C71.3 41.5 60.8 34.4 36 29 18.4 25.1 11.4 15.6 20.2 7.8c6.5-5.7 23.6-5.4 32.5.5 3.5 2.4 5.6 4.8 7.8 9.2 1.6 3.3 3.6 6 4.3 5.9.6-.1 1.6-.2 2-.3.5 0 .8-5.2.8-11.4C67.5.9 67.4.5 65.3.2 63.8 0 63 .4 63 1.3c0 2.9-2.4 3-14.1.3-7.1-1.7-20.7-1.8-27.4-.2z"/></svg>