<svg width="34" height="34" fill="none" xmlns="http://www.w3.org/2000/svg"><path d="M32.927 21.268c.555-2.073.073-4.097-1.464-5.9a8.956 8.956 0 00-.347-.383l-.877-.915 1.224-.328 1.618-.434-.154-.576c-.749-2.795-2.88-4.003-4.71-4.535L27 7.843l.897-.896 1.184-1.185-.421-.421s0 0 0 0c-.794-.794-1.712-1.328-2.735-1.602-1.278-.343-2.545-.234-3.612.027l-1.23.301.328-1.223.433-1.617-.576-.154C19.195.518 17.17 1 15.368 2.537h0a8.76 8.76 0 00-.383.347l-.915.877-.328-1.224-.434-1.618-.576.154c-2.072.555-3.584 1.985-4.376 4.217-.057.16-.11.325-.159.493l-.354 1.216-.896-.896L5.762 4.92l-.421.421s0 0 0 0c-1.518 1.518-2.112 3.512-1.682 5.841h0c.031.168.067.337.109.506l.301 1.23-1.224-.327-1.618-.434-.154.576c-.555 2.073-.073 4.097 1.464 5.9h0c.11.129.226.257.347.383l.877.915-1.224.328-1.618.434.154.576s0 0 0 0c.749 2.795 2.88 4.003 4.71 4.535L7 26.157l-.897.896-1.184 1.185.421.421s0 0 0 0c.794.794 1.712 1.328 2.735 1.602 1.278.343 2.545.234 3.612-.027l1.23-.301-.328 1.223-.433 1.617.576.154c2.073.555 4.097.073 5.899-1.464.13-.11.258-.226.384-.347l.915-.877.328 1.224.434 1.618.576-.154s0 0 0 0c2.072-.555 3.584-1.985 4.376-4.217.057-.16.11-.325.159-.493l.354-1.216.896.896 1.185 1.184.421-.421c1.518-1.518 2.112-3.512 1.682-5.841h0a9.09 9.09 0 00-.109-.506l-.301-1.23 1.224.327 1.618.434.154-.576.724.194-.724-.194zM7.745 4.78C8.638 2.48 10.29.95 12.538.348L7.916 5.134l.091-.091-.262-.262zm.512 9.876c1.292-4.821 6.264-7.692 11.086-6.4 4.821 1.292 7.692 6.264 6.4 11.086-1.292 4.821-6.264 7.692-11.086 6.4-4.821-1.292-7.692-6.264-6.4-11.086z" stroke="#BC1D4A" stroke-width="1.5"/></svg>